<svg xmlns="http://www.w3.org/2000/svg" viewBox="0 0 200 200" width="200" height="200" role="img" aria-label="MathAI Program Credit gift">
  <defs>
    <linearGradient id="boxFace" x1="0" y1="0" x2="0" y2="1">
      <stop offset="0%" stop-color="#FF8466"></stop>
      <stop offset="100%" stop-color="#F96B4C"></stop>
    </linearGradient>
    <linearGradient id="boxLid" x1="0" y1="0" x2="0" y2="1">
      <stop offset="0%" stop-color="#FF9277"></stop>
      <stop offset="100%" stop-color="#F96B4C"></stop>
    </linearGradient>
    <linearGradient id="ribbonV" x1="0" y1="0" x2="0" y2="1">
      <stop offset="0%" stop-color="#3A1768"></stop>
      <stop offset="100%" stop-color="#2B0D4B"></stop>
    </linearGradient>
    <radialGradient id="shineSpot" cx="0.35" cy="0.25" r="0.5">
      <stop offset="0%" stop-color="#FFFFFF" stop-opacity="0.45"></stop>
      <stop offset="100%" stop-color="#FFFFFF" stop-opacity="0"></stop>
    </radialGradient>
    <filter id="softShadow" x="-20%" y="-10%" width="140%" height="130%">
      <feGaussianBlur stdDeviation="3"></feGaussianBlur>
    </filter>
  </defs>

  
  <ellipse cx="100" cy="178" rx="64" ry="6" fill="#2B0D4B" opacity="0.18" filter="url(#softShadow)"></ellipse>

  
  <g>
    
    <rect x="34" y="78" width="132" height="92" rx="10" fill="url(#boxFace)"></rect>
    
    <rect x="34" y="78" width="132" height="92" rx="10" fill="url(#shineSpot)"></rect>
    
    <rect x="86" y="78" width="28" height="92" fill="url(#ribbonV)"></rect>
    
    <rect x="34" y="78" width="132" height="6" fill="#2B0D4B" opacity="0.10"></rect>
  </g>

  
  <g>
    <rect x="26" y="62" width="148" height="22" rx="6" fill="url(#boxLid)"></rect>
    <rect x="26" y="62" width="148" height="22" rx="6" fill="url(#shineSpot)" opacity="0.6"></rect>
    
    <rect x="86" y="62" width="28" height="22" fill="url(#ribbonV)"></rect>
    
    <rect x="26" y="80" width="148" height="4" rx="2" fill="#2B0D4B" opacity="0.18"></rect>
  </g>

  
  <g>
    
    <path d="M100 62&#xA;             C 78 50, 60 38, 64 26&#xA;             C 68 16, 92 24, 100 56 Z" fill="url(#ribbonV)"></path>
    
    <path d="M100 62&#xA;             C 122 50, 140 38, 136 26&#xA;             C 132 16, 108 24, 100 56 Z" fill="url(#ribbonV)"></path>
    
    <path d="M82 38 Q 92 46, 100 56" stroke="#1A0530" stroke-width="1.2" fill="none" opacity="0.5"></path>
    <path d="M118 38 Q 108 46, 100 56" stroke="#1A0530" stroke-width="1.2" fill="none" opacity="0.5"></path>
    
    <ellipse cx="100" cy="58" rx="9" ry="7" fill="#3A1768"></ellipse>
    <ellipse cx="100" cy="56" rx="6" ry="3.5" fill="#FFFFFF" opacity="0.18"></ellipse>
  </g>

  
  <g transform="translate(132 96) rotate(12)">
    
    <path d="M-30 -8 Q -16 -10, -4 -2" stroke="#2B0D4B" stroke-width="1.5" fill="none" opacity="0.7"></path>
    
    <path d="M0 0&#xA;             L 32 0&#xA;             L 38 8&#xA;             L 32 16&#xA;             L 0 16&#xA;             Z" fill="#FFD37A" stroke="#2B0D4B" stroke-width="1.2"></path>
    
    <circle cx="3" cy="8" r="1.6" fill="#2B0D4B"></circle>
    
    <circle cx="13" cy="8" r="3.2" fill="#F96B4C"></circle>
    <rect x="19" y="5.5" width="5" height="5" fill="#2B0D4B"></rect>
  </g>

  
  <g fill="#FFD37A" opacity="0.85">
    <path d="M40 50 l3 0 l-1.5 -3 z"></path>
    <path d="M40 50 l3 0 l-1.5 3 z"></path>
    <path d="M40 50 l-3 0 l1.5 -3 z"></path>
    <path d="M40 50 l-3 0 l1.5 3 z"></path>
  </g>
  <g fill="#F96B4C" opacity="0.7">
    <circle cx="166" cy="48" r="2.5"></circle>
    <circle cx="22" cy="120" r="2"></circle>
  </g>
</svg>